<?xml version="1.0" standalone="no"?>
<!DOCTYPE svg PUBLIC "-//W3C//DTD SVG 20010904//EN"
 "http://www.w3.org/TR/2001/REC-SVG-20010904/DTD/svg10.dtd">
<svg version="1.0" xmlns="http://www.w3.org/2000/svg"
 width="1280.000000pt" height="1279.000000pt" viewBox="0 0 1280.000000 1279.000000"
 preserveAspectRatio="xMidYMid meet">
<g transform="translate(0.000000,1279.000000) scale(0.100000,-0.100000)"
fill="#000000" stroke="none">
<path d="M5985 12778 c-99 -16 -102 -17 -110 -40 -4 -13 -10 -108 -14 -213 -6
-186 -7 -191 -36 -244 -57 -103 -174 -169 -317 -179 -96 -6 -157 9 -225 53
-74 49 -125 123 -194 282 -85 196 -77 187 -158 180 -72 -6 -155 -28 -185 -50
-29 -21 -31 -96 -7 -227 28 -154 28 -240 -3 -305 -57 -123 -256 -228 -399
-212 -124 15 -213 88 -357 292 -84 120 -102 140 -123 138 -13 -1 -73 -24 -132
-52 l-107 -51 7 -47 c3 -27 29 -115 57 -197 53 -158 64 -246 39 -310 -23 -58
-83 -126 -154 -174 -209 -139 -339 -104 -617 164 -59 57 -114 104 -122 104
-32 0 -218 -138 -218 -162 0 -23 74 -176 122 -249 64 -101 77 -138 78 -220 0
-54 -5 -77 -31 -127 -39 -78 -132 -172 -207 -209 -49 -24 -69 -28 -142 -28
-78 0 -92 3 -164 38 -43 20 -133 74 -200 120 -66 46 -126 87 -133 90 -14 9
-107 -71 -166 -143 -59 -70 -52 -86 111 -269 133 -149 158 -213 128 -331 -22
-83 -68 -163 -133 -228 -63 -63 -125 -93 -208 -99 -85 -7 -158 14 -334 97 -82
38 -156 70 -164 70 -17 0 -90 -93 -137 -175 l-31 -55 19 -27 c27 -37 79 -85
182 -167 134 -108 176 -165 187 -255 9 -82 -39 -212 -118 -318 -29 -39 -55
-60 -105 -84 -60 -30 -75 -33 -148 -32 -56 1 -124 12 -224 37 -79 20 -161 36
-182 36 -37 0 -41 -3 -64 -48 -35 -69 -76 -173 -76 -193 0 -23 65 -80 120
-106 164 -76 199 -95 237 -127 23 -21 55 -63 72 -98 26 -51 31 -73 31 -132 0
-178 -90 -338 -215 -385 -57 -22 -179 -41 -257 -41 -28 0 -91 8 -140 17 -86
17 -89 17 -116 -4 -37 -27 -51 -75 -54 -185 l-3 -92 40 -23 c22 -13 103 -43
181 -68 149 -47 208 -79 249 -135 51 -68 59 -97 59 -220 1 -145 -16 -198 -85
-275 -84 -92 -182 -126 -406 -145 -76 -6 -142 -15 -146 -19 -11 -10 -37 -137
-37 -176 0 -16 6 -50 14 -75 l13 -45 74 -18 c41 -10 124 -24 184 -32 171 -22
210 -38 274 -111 63 -72 85 -139 85 -264 1 -94 -2 -111 -26 -162 -34 -72 -101
-139 -181 -178 -34 -16 -125 -48 -202 -71 -77 -22 -144 -45 -150 -50 -25 -25
7 -252 39 -278 25 -20 194 -30 309 -19 104 11 119 10 163 -7 96 -37 183 -143
219 -269 60 -206 -17 -331 -299 -486 -198 -109 -183 -87 -143 -205 19 -55 42
-116 51 -134 18 -33 18 -34 74 -27 31 4 106 18 167 33 68 16 142 26 195 27 74
1 92 -3 141 -27 103 -50 185 -169 210 -301 27 -149 -40 -257 -278 -449 -62
-49 -113 -96 -113 -105 0 -21 76 -160 109 -201 l29 -35 83 18 c53 11 128 38
203 74 101 48 128 57 175 57 168 0 363 -197 365 -368 1 -38 -6 -82 -18 -112
-24 -66 -106 -188 -200 -300 -42 -49 -76 -94 -76 -98 -1 -32 152 -207 180
-207 47 0 189 73 263 134 87 73 123 88 205 88 76 0 155 -31 227 -89 110 -90
163 -200 152 -318 -8 -84 -32 -144 -122 -300 -41 -72 -75 -138 -75 -147 0 -18
86 -101 153 -147 37 -25 55 -31 74 -26 15 3 85 64 157 135 165 161 190 175
317 175 89 0 99 -2 170 -37 92 -45 163 -112 196 -184 22 -48 25 -66 21 -137
-3 -68 -13 -113 -63 -260 l-60 -179 30 -24 c17 -13 72 -45 122 -70 89 -44 94
-46 117 -30 27 17 88 94 163 206 61 91 136 163 188 180 54 18 196 8 265 -19
116 -46 197 -128 227 -230 20 -72 14 -211 -17 -347 -26 -110 -23 -145 14 -169
32 -22 153 -55 197 -55 62 0 101 57 189 271 39 96 85 150 158 186 142 70 403
8 485 -116 15 -22 36 -68 49 -103 21 -57 22 -78 21 -235 -3 -224 -11 -213 162
-225 77 -6 131 -6 137 0 15 15 55 140 78 241 29 131 54 184 112 236 75 67 141
89 268 90 92 0 111 -3 155 -25 72 -35 140 -108 181 -193 34 -72 63 -184 64
-243 0 -17 7 -53 15 -80 12 -42 20 -52 48 -62 18 -7 49 -12 68 -12 48 0 171
30 189 46 11 11 16 56 20 207 7 205 13 235 66 304 42 55 121 101 214 124 155
39 254 13 365 -99 62 -63 102 -133 150 -267 49 -136 49 -136 88 -128 98 18
224 56 235 70 18 25 15 134 -9 263 -29 161 -19 220 52 311 65 83 213 149 332
149 145 0 238 -71 378 -289 79 -122 86 -131 116 -131 39 0 104 28 179 75 l57
36 -6 52 c-3 29 -26 108 -52 177 -83 223 -73 303 55 424 92 86 194 137 276
137 115 1 193 -44 374 -218 l120 -115 55 27 c75 38 165 120 165 150 0 13 -39
102 -87 197 -88 172 -88 172 -88 248 0 63 5 84 29 130 37 71 129 160 202 196
146 71 285 34 542 -148 45 -32 88 -58 96 -58 15 0 186 174 186 190 0 28 -46
94 -135 194 -123 138 -149 191 -143 288 9 122 98 267 206 337 117 75 215 67
454 -39 86 -39 162 -70 167 -70 13 0 89 101 131 176 29 50 31 57 17 77 -27 41
-63 74 -159 144 -52 39 -109 88 -127 109 -36 44 -61 118 -61 179 0 101 62 247
136 322 106 105 219 117 464 47 138 -39 177 -44 194 -25 28 32 86 159 92 203
6 43 4 46 -32 76 -21 18 -95 62 -164 99 -144 78 -189 115 -220 181 -20 42 -22
58 -18 152 9 179 68 287 193 350 l68 35 225 0 224 0 25 80 c13 44 27 105 30
136 5 52 3 57 -22 77 -34 27 -168 79 -248 95 -87 19 -131 42 -177 94 -51 58
-74 128 -74 223 1 197 76 322 229 379 30 11 125 30 211 41 86 12 166 25 179
30 17 6 26 22 35 57 21 85 22 118 5 175 -21 75 -33 79 -250 103 -203 22 -273
63 -331 190 -76 168 -43 370 75 464 77 60 189 110 298 132 129 26 143 36 143
100 0 27 -10 88 -21 135 -19 73 -26 87 -48 96 -26 10 -198 15 -339 10 -90 -4
-140 17 -205 87 -106 113 -145 285 -95 418 38 102 144 188 371 299 l77 38 0
43 c0 53 -39 162 -75 209 -28 36 -28 36 -85 30 -32 -4 -104 -20 -161 -37 -212
-61 -291 -49 -393 62 -102 110 -149 244 -121 351 26 104 88 184 251 329 63 55
114 107 114 115 0 29 -119 234 -135 234 -3 0 -53 -14 -112 -31 -67 -19 -134
-46 -178 -72 -65 -39 -74 -42 -145 -42 -98 0 -152 26 -243 116 -123 122 -158
247 -107 381 25 68 77 141 194 272 47 53 86 100 86 105 0 17 -60 100 -115 159
-50 55 -62 62 -84 57 -25 -6 -92 -49 -262 -169 -119 -84 -208 -92 -328 -32
-68 35 -161 124 -196 188 -23 43 -30 68 -33 134 -6 107 23 195 118 364 39 68
70 129 70 135 0 22 -195 185 -221 185 -4 0 -69 -58 -144 -130 -149 -142 -196
-175 -274 -190 -139 -26 -344 87 -408 226 -23 51 -25 64 -21 157 4 89 11 122
56 259 29 87 52 165 52 173 0 26 -184 135 -229 135 -30 0 -125 -112 -195 -230
-71 -119 -111 -152 -209 -172 -112 -24 -278 26 -369 111 -106 97 -127 201 -89
429 12 71 21 151 19 178 l-3 48 -110 38 c-106 37 -165 47 -165 30 0 -5 -23
-46 -50 -91 -28 -46 -60 -113 -72 -149 -30 -97 -52 -135 -99 -176 -62 -53
-123 -70 -233 -63 -149 8 -256 61 -322 159 -48 72 -67 159 -72 343 -2 88 -8
168 -14 178 -17 32 -71 47 -170 47 -51 0 -98 -4 -105 -8 -22 -14 -74 -178 -88
-281 -22 -154 -66 -215 -189 -264 -41 -17 -74 -21 -171 -22 -116 0 -123 1
-185 32 -113 55 -161 141 -221 390 -16 68 -35 139 -43 158 -15 35 -16 35 -73
34 -32 -1 -85 -6 -118 -11z m1270 -890 c550 -135 964 -267 1405 -448 401 -164
627 -280 915 -468 652 -424 1255 -1164 1740 -2132 71 -143 185 -392 185 -405
0 -25 -54 43 -266 341 -300 417 -386 527 -523 664 -172 171 -334 267 -497 292
-160 25 -311 -38 -492 -205 -55 -51 -65 -56 -83 -46 -12 6 -162 110 -333 232
-646 458 -926 659 -926 668 0 4 21 41 47 81 26 40 60 106 77 148 60 153 36
262 -93 422 -182 226 -525 447 -1191 768 -270 131 -283 137 -275 151 7 11 26
7 310 -63z m-1975 -227 c0 -5 -15 -16 -32 -24 -18 -8 -148 -68 -288 -132 -558
-256 -792 -391 -963 -554 -185 -177 -255 -355 -213 -543 17 -76 70 -192 125
-272 17 -25 31 -51 31 -60 0 -13 -1052 -1050 -1084 -1068 -8 -5 -38 15 -82 54
-139 124 -222 162 -342 157 -70 -4 -89 -9 -174 -51 -126 -63 -245 -157 -398
-314 -190 -195 -356 -402 -678 -841 -73 -101 -102 -130 -102 -105 0 11 62 163
126 307 124 282 418 842 594 1130 304 498 642 910 965 1180 564 470 1346 843
2310 1101 164 44 205 51 205 35z m1745 -620 c182 -32 643 -146 795 -197 161
-54 200 -75 282 -157 109 -109 158 -233 158 -399 0 -178 -47 -283 -234 -517
-59 -75 -126 -162 -148 -194 -52 -76 -113 -207 -133 -282 -137 -526 371 -1006
890 -841 171 54 277 146 431 370 120 175 307 409 375 470 64 58 133 80 245 79
106 -1 183 -18 273 -59 59 -27 91 -51 160 -121 106 -108 166 -188 272 -363
173 -288 352 -683 460 -1012 208 -637 279 -1412 188 -2051 -87 -607 -328
-1287 -609 -1716 -188 -287 -406 -499 -615 -597 -118 -55 -178 -69 -305 -69
-95 0 -110 3 -163 29 -77 37 -179 141 -238 242 -26 44 -72 122 -102 174 -162
278 -398 436 -667 447 -136 6 -224 -12 -349 -73 -172 -83 -309 -248 -367 -439
-12 -42 -18 -93 -18 -170 0 -181 46 -298 207 -524 213 -297 289 -455 303 -626
17 -209 -110 -407 -331 -515 -92 -45 -208 -78 -420 -119 -733 -144 -1430 -131
-2100 39 -380 96 -877 290 -1066 416 -197 130 -301 309 -286 489 8 89 28 146
91 264 62 115 109 167 293 328 166 145 257 253 318 378 61 125 78 203 73 340
-4 92 -10 122 -35 186 -154 392 -594 584 -950 414 -110 -51 -156 -89 -373
-298 -326 -316 -443 -387 -635 -387 -215 0 -393 128 -516 372 -100 198 -255
650 -334 973 -178 729 -166 1500 35 2245 107 394 300 883 420 1061 87 129 199
215 329 253 70 20 218 21 296 1 136 -36 218 -103 520 -429 171 -185 286 -263
454 -308 103 -28 281 -30 366 -4 115 34 194 84 296 186 79 78 103 110 137 180
105 213 94 465 -29 673 -55 93 -120 169 -285 334 -160 160 -220 235 -274 344
-162 322 -37 627 324 789 127 56 531 202 684 246 266 77 499 122 757 149 225
23 212 22 635 19 350 -2 409 -5 515 -23z m1551 -1571 c82 -40 150 -108 188
-190 27 -57 31 -76 31 -150 0 -72 -4 -94 -29 -147 -55 -119 -183 -210 -310
-220 -151 -13 -313 83 -383 225 -24 49 -28 69 -28 142 0 75 4 93 31 150 94
195 317 280 500 190z m-4354 -307 c84 -39 152 -107 191 -191 28 -60 32 -77 32
-157 0 -82 -3 -97 -33 -157 -36 -74 -105 -143 -177 -178 -82 -40 -211 -44
-298 -11 -130 50 -237 216 -237 367 0 148 115 303 260 349 71 23 186 14 262
-22z m7349 -2788 c37 -20 69 -70 69 -110 0 -65 -72 -135 -138 -135 -132 0
-167 169 -50 240 40 24 79 25 119 5z m-10366 -1300 c123 -272 337 -701 410
-820 141 -233 302 -403 447 -474 186 -92 336 -77 557 56 57 35 110 63 117 63
11 0 1086 -1092 1093 -1111 1 -6 -21 -36 -51 -67 -101 -106 -163 -218 -174
-315 -11 -93 60 -261 168 -398 188 -241 463 -476 1066 -914 177 -128 168 -135
-54 -41 -480 204 -821 376 -1234 624 -959 575 -1438 1077 -1889 1982 -151 304
-268 588 -376 915 -53 163 -136 447 -165 567 -45 186 -20 167 85 -67z m2940
-710 c80 -38 149 -110 188 -193 29 -60 32 -77 32 -157 0 -82 -3 -97 -33 -157
-41 -84 -120 -158 -200 -188 -48 -19 -71 -21 -147 -17 -175 10 -255 57 -320
191 -81 164 -66 317 41 435 83 92 158 123 290 118 75 -2 100 -7 149 -32z
m7255 -244 c0 -4 -51 -87 -114 -184 -587 -902 -1223 -1607 -1809 -2005 -531
-360 -1201 -602 -2072 -746 -276 -46 -737 -95 -772 -82 -30 12 -1 23 162 66
402 104 811 230 988 305 232 98 411 247 490 404 28 57 32 76 35 165 4 114 -9
178 -64 315 -19 47 -34 90 -34 97 0 12 1240 874 1258 874 5 0 35 -34 67 -76
137 -178 258 -235 428 -199 289 60 615 297 1230 893 174 168 207 196 207 173z
m-2935 -230 c78 -39 136 -102 166 -180 30 -79 24 -204 -14 -277 -52 -103 -126
-161 -237 -190 -164 -42 -330 44 -389 201 -32 86 -29 193 7 270 35 72 67 112
122 150 106 74 229 83 345 26z"/>
</g>
</svg>
